<svg width="93" height="93" viewBox="0 0 93 93" fill="none" xmlns="http://www.w3.org/2000/svg">
<g filter="url(#filter0_d_16_2)">
<rect x="26" y="23" width="40.5471" height="40.5471" rx="6.90163" fill="white"/>
</g>
<path d="M59.0741 46.1534C59.0744 45.2697 58.8306 44.4031 58.3696 43.6491C57.9087 42.895 57.2485 42.2829 56.4618 41.8801C55.6752 41.4773 54.7925 41.2995 53.9112 41.3662C53.0299 41.433 52.1842 41.7417 51.4672 42.2585C50.7502 42.7752 50.1897 43.4798 49.8477 44.2946C49.5056 45.1095 49.3952 46.003 49.5286 46.8766C49.662 47.7502 50.034 48.57 50.6037 49.2457C51.1733 49.9214 51.9185 50.4267 52.757 50.7059C52.5942 51.4557 52.1797 52.1271 51.5824 52.6087C50.9851 53.0903 50.2409 53.3529 49.4736 53.353H46.5935C45.7023 53.353 44.8476 52.999 44.2175 52.3689C43.5873 51.7388 43.2333 50.8843 43.2333 49.9932V45.5415C47.0411 44.8479 49.9537 41.4509 49.9537 37.4144V32.7143C49.9537 32.3991 49.8916 32.0871 49.771 31.7959C49.6503 31.5048 49.4735 31.2402 49.2507 31.0174C49.0278 30.7945 48.7632 30.6177 48.472 30.4971C48.1808 30.3765 47.8687 30.3145 47.5535 30.3145H45.6334C45.2515 30.3145 44.8852 30.4662 44.6151 30.7362C44.3451 31.0062 44.1934 31.3725 44.1934 31.7544C44.1934 32.1362 44.3451 32.5025 44.6151 32.7725C44.8852 33.0426 45.2515 33.1943 45.6334 33.1943H47.0735V37.4144C47.0735 40.3422 44.737 42.7565 41.864 42.7937C41.1647 42.803 40.4704 42.6734 39.8216 42.4123C39.1728 42.1511 38.5823 41.7637 38.0845 41.2725C37.5866 40.7813 37.1913 40.1961 36.9216 39.5509C36.6518 38.9057 36.5129 38.2133 36.513 37.514V33.1943H37.953C38.335 33.1943 38.7013 33.0426 38.9713 32.7725C39.2414 32.5025 39.3931 32.1362 39.3931 31.7544C39.3931 31.3725 39.2414 31.0062 38.9713 30.7362C38.7013 30.4662 38.335 30.3145 37.953 30.3145H36.0329C35.3964 30.3145 34.7859 30.5673 34.3358 31.0174C33.8857 31.4674 33.6328 32.0778 33.6328 32.7143V37.514C33.6329 39.4282 34.3061 41.2815 35.5346 42.7496C36.7631 44.2178 38.4687 45.2073 40.3532 45.5451V49.9932C40.3551 51.6475 41.0131 53.2334 42.183 54.4032C43.3529 55.5729 44.939 56.2309 46.5935 56.2328H49.4736C50.9975 56.231 52.4682 55.6723 53.6089 54.6619C54.7496 53.6515 55.4816 52.2591 55.6671 50.7467C56.6519 50.4465 57.5143 49.8382 58.1276 49.0114C58.7409 48.1846 59.0727 47.1828 59.0741 46.1534ZM54.2739 48.0733C53.8941 48.0733 53.5229 47.9607 53.2071 47.7498C52.8914 47.5388 52.6453 47.239 52.4999 46.8881C52.3546 46.5373 52.3166 46.1513 52.3907 45.7789C52.4648 45.4065 52.6476 45.0644 52.9162 44.7959C53.1847 44.5274 53.5268 44.3445 53.8993 44.2705C54.2717 44.1964 54.6578 44.2344 55.0087 44.3797C55.3595 44.525 55.6594 44.7711 55.8704 45.0868C56.0814 45.4025 56.194 45.7737 56.194 46.1534C56.194 46.6626 55.9917 47.1509 55.6316 47.511C55.2715 47.871 54.7831 48.0733 54.2739 48.0733Z" fill="url(#paint0_linear_16_2)"/>
<defs>
<filter id="filter0_d_16_2" x="0.118876" y="0.569692" width="92.3094" height="92.3094" filterUnits="userSpaceOnUse" color-interpolation-filters="sRGB">
<feFlood flood-opacity="0" result="BackgroundImageFix"/>
<feColorMatrix in="SourceAlpha" type="matrix" values="0 0 0 0 0 0 0 0 0 0 0 0 0 0 0 0 0 0 127 0" result="hardAlpha"/>
<feOffset dy="3.45082"/>
<feGaussianBlur stdDeviation="12.9406"/>
<feComposite in2="hardAlpha" operator="out"/>
<feColorMatrix type="matrix" values="0 0 0 0 0 0 0 0 0 0 0 0 0 0 0 0 0 0 0.09 0"/>
<feBlend mode="normal" in2="BackgroundImageFix" result="effect1_dropShadow_16_2"/>
<feBlend mode="normal" in="SourceGraphic" in2="effect1_dropShadow_16_2" result="shape"/>
</filter>
<linearGradient id="paint0_linear_16_2" x1="31.5657" y1="34.2102" x2="51.7597" y2="56.2328" gradientUnits="userSpaceOnUse">
<stop stop-color="#D86D6B"/>
<stop offset="0.228785" stop-color="#F5854E"/>
<stop offset="0.408008" stop-color="#F0C971"/>
<stop offset="0.634525" stop-color="#3CC6C1"/>
<stop offset="0.790545" stop-color="#419E80"/>
<stop offset="1" stop-color="#4188C1"/>
</linearGradient>
</defs>
</svg>
